<?xml version="1.0" encoding="iso-8859-1"?>
<!-- Generator: Adobe Illustrator 16.0.0, SVG Export Plug-In . SVG Version: 6.00 Build 0)  -->
<!DOCTYPE svg PUBLIC "-//W3C//DTD SVG 1.1//EN" "http://www.w3.org/Graphics/SVG/1.1/DTD/svg11.dtd">
<svg xmlns="http://www.w3.org/2000/svg" xmlns:xlink="http://www.w3.org/1999/xlink" version="1.1" id="Capa_1" x="0px" y="0px" width="512px" height="512px" viewBox="0 0 485.211 485.21" style="enable-background:new 0 0 485.211 485.21;" xml:space="preserve">
<g>
	<g>
		<polygon points="348.745,379.071 288.097,379.071 288.097,409.393 257.77,439.724 379.076,439.724 348.745,409.393   " fill="#cccccc"/>
		<path d="M90.978,45.487H30.327C13.564,45.487,0,59.08,0,75.813v333.58c0,16.769,13.564,30.331,30.327,30.331h60.651    c16.762,0,30.327-13.562,30.327-30.331V75.813C121.304,59.08,107.739,45.487,90.978,45.487z M60.651,348.745H30.327v-30.332    h30.324V348.745z M90.978,197.116H30.327v-30.324h60.651V197.116z M90.978,136.464H30.327v-30.326h60.651V136.464z" fill="#cccccc"/>
		<path d="M454.889,106.138H181.955c-16.762,0-30.327,13.593-30.327,30.326v181.948c0,16.77,13.565,30.332,30.327,30.332h272.934    c16.759,0,30.322-13.562,30.322-30.332V136.464C485.211,119.731,471.647,106.138,454.889,106.138z M333.586,333.582h-30.331    v-30.327h30.331V333.582z M454.889,288.091H181.955V136.464h272.934V288.091z" fill="#cccccc"/>
	</g>
</g>
<g>
</g>
<g>
</g>
<g>
</g>
<g>
</g>
<g>
</g>
<g>
</g>
<g>
</g>
<g>
</g>
<g>
</g>
<g>
</g>
<g>
</g>
<g>
</g>
<g>
</g>
<g>
</g>
<g>
</g>
</svg>
