<?xml version="1.0" encoding="UTF-8" standalone="no"?>
<svg
   xmlns:dc="http://purl.org/dc/elements/1.1/"
   xmlns:cc="http://creativecommons.org/ns#"
   xmlns:rdf="http://www.w3.org/1999/02/22-rdf-syntax-ns#"
   xmlns:svg="http://www.w3.org/2000/svg"
   xmlns="http://www.w3.org/2000/svg"
   xmlns:sodipodi="http://sodipodi.sourceforge.net/DTD/sodipodi-0.dtd"
   xmlns:inkscape="http://www.inkscape.org/namespaces/inkscape"
   viewBox="0 0 50 50"
   enable-background="new 0 0 50 50"
   id="svg2"
   version="1.1"
   inkscape:version="0.91 r13725"
   sodipodi:docname="cutter.svg">
  <metadata
     id="metadata10">
    <rdf:RDF>
      <cc:Work
         rdf:about="">
        <dc:format>image/svg+xml</dc:format>
        <dc:type
           rdf:resource="http://purl.org/dc/dcmitype/StillImage" />
      </cc:Work>
    </rdf:RDF>
  </metadata>
  <defs
     id="defs8" />
  <sodipodi:namedview
     pagecolor="#ffffff"
     bordercolor="#666666"
     borderopacity="1"
     objecttolerance="10"
     gridtolerance="10"
     guidetolerance="10"
     inkscape:pageopacity="0"
     inkscape:pageshadow="2"
     inkscape:window-width="1920"
     inkscape:window-height="1142"
     id="namedview6"
     showgrid="false"
     inkscape:zoom="4.72"
     inkscape:cx="25.423729"
     inkscape:cy="25"
     inkscape:window-x="0"
     inkscape:window-y="0"
     inkscape:window-maximized="1"
     inkscape:current-layer="svg2" />
  <path
     d="M 0 3 L 0 33 L 16.1875 33 L 14.1875 31 L 2 31 L 2 5 L 48 5 L 48 31 L 29.8125 31 L 31.8125 33 L 50 33 L 50 3 L 0 3 z M 3 6 L 3 9 L 5 9 L 5 6 L 3 6 z M 9 6 L 9 9 L 11 9 L 11 6 L 9 6 z M 15 6 L 15 9 L 17 9 L 17 6 L 15 6 z M 21 6 L 21 9 L 23 9 L 23 6 L 21 6 z M 27 6 L 27 9 L 29 9 L 29 6 L 27 6 z M 33 6 L 33 9 L 35 9 L 35 6 L 33 6 z M 39 6 L 39 9 L 41 9 L 41 6 L 39 6 z M 45 6 L 45 9 L 47 9 L 47 6 L 45 6 z M 13.78125 21.90625 A 1.0001 1.0001 0 0 0 12.9375 23.1875 L 14.625 29.1875 A 1.0001 1.0001 0 0 0 14.90625 29.59375 L 33.3125 48.09375 L 33.59375 48.40625 A 1.0001 1.0001 0 0 0 33.65625 48.46875 A 1.0001 1.0001 0 0 0 33.78125 48.59375 A 1.0001 1.0001 0 0 0 33.8125 48.59375 L 34 48.8125 C 35.6 50.4125 38.2125 50.4125 39.8125 48.8125 C 41.4125 47.2125 41.4125 44.6 39.8125 43 L 39.59375 42.78125 A 1.0001 1.0001 0 0 0 39.4375 42.625 A 1.0001 1.0001 0 0 0 39.40625 42.59375 L 39.09375 42.3125 L 20.59375 23.90625 A 1.0001 1.0001 0 0 0 20.1875 23.625 L 14.1875 21.9375 A 1.0001 1.0001 0 0 0 13.78125 21.90625 z M 19.3125 25.46875 L 19.375 25.5 L 37.6875 43.71875 L 34.71875 46.6875 L 16.5 28.375 L 16.46875 28.3125 L 19.3125 25.46875 z M 3 27 L 3 30 L 5 30 L 5 27 L 3 27 z M 9 27 L 9 30 L 11 30 L 11 27 L 9 27 z M 27 27 L 27 28 L 29 30 L 29 27 L 27 27 z M 33 27 L 33 30 L 35 30 L 35 27 L 33 27 z M 39 27 L 39 30 L 41 30 L 41 27 L 39 27 z M 45 27 L 45 30 L 47 30 L 47 27 L 45 27 z"
     id="path4"
     style="fill:#cccccc;fill-opacity:1" />
</svg>
