<?xml version="1.0" encoding="UTF-8" standalone="no"?>
<!-- Svg Vector Icons : http://www.onlinewebfonts.com/icon -->

<svg
   xmlns:dc="http://purl.org/dc/elements/1.1/"
   xmlns:cc="http://creativecommons.org/ns#"
   xmlns:rdf="http://www.w3.org/1999/02/22-rdf-syntax-ns#"
   xmlns:svg="http://www.w3.org/2000/svg"
   xmlns="http://www.w3.org/2000/svg"
   xmlns:sodipodi="http://sodipodi.sourceforge.net/DTD/sodipodi-0.dtd"
   xmlns:inkscape="http://www.inkscape.org/namespaces/inkscape"
   version="1.1"
   x="0px"
   y="0px"
   viewBox="0 0 1000 1000"
   enable-background="new 0 0 1000 1000"
   xml:space="preserve"
   id="svg2"
   inkscape:version="0.91 r13725"
   sodipodi:docname="0e231015cfdc18cac4b7e288c15810e7.svg"><defs
     id="defs46" /><sodipodi:namedview
     pagecolor="#ffffff"
     bordercolor="#666666"
     borderopacity="1"
     objecttolerance="10"
     gridtolerance="10"
     guidetolerance="10"
     inkscape:pageopacity="0"
     inkscape:pageshadow="2"
     inkscape:window-width="781"
     inkscape:window-height="480"
     id="namedview44"
     showgrid="false"
     inkscape:zoom="0.3337544"
     inkscape:cx="687.75111"
     inkscape:cy="555.84828"
     inkscape:window-x="340"
     inkscape:window-y="112"
     inkscape:window-maximized="0"
     inkscape:current-layer="g8" /><metadata
     id="metadata4"> Svg Vector Icons : http://www.onlinewebfonts.com/icon <rdf:RDF><cc:Work
     rdf:about=""><dc:format>image/svg+xml</dc:format><dc:type
       rdf:resource="http://purl.org/dc/dcmitype/StillImage" /></cc:Work></rdf:RDF></metadata><g
     id="g6"><g
       transform="translate(0.000000,238.000000) scale(0.100000,-0.100000)"
       id="g8"><path
         d="M656.2-366.8c-222.5-71-397-222.5-494.8-429.6L100-924.9v-1697.3v-1697.3l61.4-128.5c78.6-168.8,216.7-306.9,385.5-385.5l128.5-61.4H5000h4324.7l128.5,61.4c168.8,78.6,306.8,216.7,385.5,385.5l61.4,128.5v1697.3v1697.3l-61.4,128.5c-78.6,168.8-216.7,306.9-385.5,385.5l-128.5,61.4l-4295.9,3.8C1595.9-343.8,717.5-347.6,656.2-366.8z M9305.5-687.1c99.7-28.8,228.2-157.3,257-257c28.8-107.4,28.8-3248.8,0-3356.2c-28.8-99.7-157.3-228.2-257-257c-109.3-30.7-8501.6-30.7-8611,0c-99.7,28.8-228.2,157.3-257,257c-28.8,105.5-28.8,3248.8,0,3354.2c26.9,95.9,140,216.7,237.8,251.2c65.2,23,711.5,26.8,4315.1,28.8C8037.8-666,9249.9-671.7,9305.5-687.1z"
         id="path10"
         style="fill:#cccccc;fill-opacity:1" /><path
         d="M1012.9-840.5C847.9-873.1,698.4-993.9,625.5-1155c-32.6-72.9-36.4-163-36.4-1463.3c0-1532.3-5.8-1446,124.7-1607.1c40.3-47.9,113.1-103.5,178.4-136.2l109.3-53.7H5000h3998.6l109.3,53.7c65.2,32.6,138.1,88.2,178.3,136.2c130.4,161.1,124.7,74.8,124.7,1609v1386.6l-49.9,99.7c-55.6,113.2-151.5,203.3-274.3,260.8l-88.2,40.3l-3950.7,1.9C2875.1-825.2,1058.9-830.9,1012.9-840.5z M9040.8-1206.8l44.1-40.3v-1373.2v-1371.2l-42.2-44.1l-40.3-44.1H5001.9H1003.3l-44.1,42.2l-44.1,40.3v1373.1v1371.2l42.2,44.1l40.3,44.1h4000.6h3998.6L9040.8-1206.8z"
         id="path12"
         style="fill:#cccccc;fill-opacity:1" /><path
         d="M6597.5-1484.9c-24.9-3.8-61.4-30.7-82.5-57.5c-34.5-44.1-38.3-76.7-38.3-354.8c0-297.3,1.9-304.9,47.9-351s51.8-47.9,354.8-47.9s308.8,1.9,354.8,47.9c46,44.1,47.9,57.5,51.8,301.1c3.8,343.3,1.9,362.5-53.7,418.1c-46,46-55.6,47.9-320.3,51.8C6762.5-1477.2,6620.5-1479.1,6597.5-1484.9z M6956.2-1893.4v-76.7h-76.7h-76.7v76.7v76.7h76.7h76.7V-1893.4z"
         id="path14"
         style="fill:#cccccc;fill-opacity:1" /><path
         d="M8078.1-1484.9c-21.1-5.7-57.5-26.8-80.6-49.9c-42.2-38.4-44.1-51.8-44.1-352.9c0-308.8,0-314.5,47.9-360.5c46-46,51.8-47.9,354.8-47.9s308.8,1.9,354.8,47.9c46,44.1,47.9,55.6,49.9,320.3c3.8,349,3.8,341.4-51.8,398.9c-46,46-55.6,47.9-320.3,51.8C8239.2-1475.3,8099.2-1479.1,8078.1-1484.9z M8432.9-1893.4v-76.7h-76.7h-76.7v76.7v76.7h76.7h76.7V-1893.4z"
         id="path16"
         style="fill:#cccccc;fill-opacity:1" /><path
         d="M1457.8-1690.1l-53.7-46l-5.8-287.7c-7.7-339.5,7.7-391.2,126.6-423.8c92.1-26.8,471.8-26.8,563.8-1.9c120.8,34.5,130.4,65.2,130.4,398.9v295.3l-55.6,55.6l-55.6,55.6h-299.2C1523-1644.1,1509.6-1646,1457.8-1690.1z M1893.1-2046.8v-76.7h-86.3h-86.3v76.7v76.7h86.3h86.3V-2046.8z"
         id="path18"
         style="fill:#cccccc;fill-opacity:1" /><path
         d="M2435.9-1690.1l-53.7-46v-308.8v-308.8l53.7-51.8l51.8-53.7h308.8h308.8l46,53.7c44.1,51.8,46,63.3,46,354.8c-1.9,207.1-7.7,310.7-24.9,331.8c-49.9,63.3-105.5,74.8-395.1,74.8C2501.1-1644.1,2487.7-1646,2435.9-1690.1z M2871.2-2046.8v-76.7h-76.7h-76.7v76.7v76.7h76.7h76.7V-2046.8z"
         id="path20"
         style="fill:#cccccc;fill-opacity:1" /><path
         d="M3417.8-1692c-47.9-46-47.9-51.8-47.9-360.5c0-312.6,0-314.5,49.9-360.6c47.9-44.1,57.5-46,354.8-46c299.2,0,304.9,0,351,47.9c46,46,47.9,57.5,49.9,316.4c1.9,147.7,1.9,287.7,0,312.6c0,24.9-21.1,65.2-47.9,90.1c-46,46-51.8,47.9-354.8,47.9S3463.8-1646,3417.8-1692z M3849.3-2046.8v-76.7h-76.7h-76.7v76.7v76.7h76.7h76.7V-2046.8z"
         id="path22"
         style="fill:#cccccc;fill-opacity:1" /><path
         d="M4397.8-1692l-49.9-46v-306.9c0-297.3,1.9-308.8,46-360.6l46-53.7h308.8h308.8l51.8,53.7l53.7,51.8v308.8v308.8l-53.7,46c-51.8,44.1-65.2,46-356.7,46C4457.3-1644.1,4447.7-1646,4397.8-1692z M4827.4-2046.8v-76.7h-76.7H4674v76.7v76.7h76.7h76.7V-2046.8z"
         id="path24"
         style="fill:#cccccc;fill-opacity:1" /><path
         d="M5381.6-1699.7l-55.6-55.6v-295.3c0-333.7,9.6-364.4,130.4-398.9c107.4-28.8,510.1-24.9,586.9,7.7c95.9,40.3,111.2,99.7,103.5,423.8c-5.8,281.9-5.8,281.9-59.4,327.9c-51.8,44.1-65.2,46-351,46h-299.2L5381.6-1699.7z M5824.7-2046.8v-76.7h-86.3h-86.3v76.7v76.7h86.3h86.3V-2046.8z"
         id="path26"
         style="fill:#cccccc;fill-opacity:1" /><path
         d="M7502.7-1692c-47.9-46-47.9-49.9-47.9-400.8v-354.8l-366.3-5.8l-366.3-5.8l-46-53.7c-24.9-30.7-46-78.6-46-109.3s21.1-78.6,46-109.3l46-53.7l366.3-5.8l366.3-5.8v-354.8c0-351,0-354.8,47.9-400.8c63.3-65.2,166.9-65.2,230.1,0c47.9,46,47.9,49.9,47.9,400.8v354.8l366.3,5.8l366.3,5.8l46,53.7c25,30.7,46,78.6,46,109.3s-21.1,78.6-46,109.3l-46,53.7l-366.3,5.8l-366.3,5.8v354.8c0,351,0,354.8-47.9,400.8c-30.7,32.6-67.1,47.9-115.1,47.9C7569.9-1644.1,7533.4-1659.4,7502.7-1692z"
         id="path28"
         style="fill:#cccccc;fill-opacity:1" /><path
         d="M1515.3-2796.7c-107.4-30.7-124.7-92.1-117-423.8l5.8-287.7l53.7-46c51.8-44.1,65.2-46,351-46h299.2l55.6,55.6l55.6,55.6v295.4c0,333.7-9.6,364.4-130.4,398.9C2002.5-2771.7,1599.7-2771.7,1515.3-2796.7z M1893.1-3197.5v-76.7h-86.3h-86.3v76.7v76.7h86.3h86.3V-3197.5z"
         id="path30"
         style="fill:#cccccc;fill-opacity:1" /><path
         d="M2491.5-2796.7c-103.6-30.7-122.7-105.5-115.1-433.4c5.8-278.1,5.8-278.1,59.4-324.1c51.8-44.1,65.2-46,341.4-46c289.6,0,345.2,11.5,395.1,74.8c17.3,21.1,23,124.7,24.9,331.8c0,291.5-1.9,303-46,354.8l-46,53.7l-276.2,3.8C2679.5-2779.4,2526-2785.1,2491.5-2796.7z M2871.2-3197.5v-76.7h-76.7h-76.7v76.7v76.7h76.7h76.7V-3197.5z"
         id="path32"
         style="fill:#cccccc;fill-opacity:1" /><path
         d="M3494.5-2789c-21.1-5.7-57.5-26.9-80.6-49.9c-42.2-38.3-44.1-51.8-44.1-352.9c0-308.8,0-314.5,47.9-360.5c46-46,51.8-47.9,354.8-47.9s308.8,1.9,354.8,47.9c46,44.1,47.9,57.5,51.8,310.7c3.8,345.2,1.9,352.9-53.7,408.5c-46,46-55.6,47.9-320.3,51.8C3655.6-2779.4,3515.6-2783.2,3494.5-2789z M3849.3-3197.5v-76.7h-76.7h-76.7v76.7v76.7h76.7h76.7V-3197.5z"
         id="path34"
         style="fill:#cccccc;fill-opacity:1" /><path
         d="M4468.8-2789c-24.9-3.8-61.4-30.7-82.5-57.5c-34.5-44.1-38.4-76.7-38.4-343.3c0-161.1,5.8-306.9,11.5-324.1c26.8-69.1,109.3-86.3,408.5-86.3c276.2,0,289.6,1.9,341.4,46l53.7,46v308.8v308.8l-53.7,51.8c-51.8,53.7-53.7,53.7-326,57.5C4633.7-2781.3,4491.8-2783.2,4468.8-2789z M4827.4-3197.5v-76.7h-76.7H4674v76.7v76.7h76.7h76.7V-3197.5z"
         id="path36"
         style="fill:#cccccc;fill-opacity:1" /><path
         d="M5427.7-2804.3c-32.6-13.4-69-42.2-80.6-65.2c-13.4-21.1-21.1-157.3-21.1-327.9V-3489l55.6-55.6l55.6-55.6h299.2c285.7,0,299.2,1.9,351,46l53.7,46l5.8,287.7c7.7,339.5-7.7,391.2-126.6,423.8C5914.8-2766,5502.5-2771.7,5427.7-2804.3z M5824.7-3197.5v-76.7h-86.3h-86.3v76.7v76.7h86.3h86.3V-3197.5z"
         id="path38"
         style="fill:#cccccc;fill-opacity:1" /><path
         d="M6524.7-2996.1c-46-46-47.9-53.7-47.9-352.9c0-297.3,1.9-308.8,46-360.5l46-53.7h308.8c303,0,308.8,0,354.8,47.9c46,46,47.9,59.4,49.9,326c3.8,362.5,7.7,339.5-47.9,393.1c-46,46-51.8,47.9-354.8,47.9S6570.7-2950.1,6524.7-2996.1z M6956.2-3350.9v-76.7h-76.7h-76.7v76.7v76.7h76.7h76.7V-3350.9z"
         id="path40"
         style="fill:#cccccc;fill-opacity:1" /><path
         d="M8001.4-2996.1c-47.9-46-47.9-51.8-47.9-360.5c0-312.6,0-314.5,49.9-360.6c47.9-44.1,57.5-46,356.7-46h306.9l46,53.7c44.1,51.8,46,63.3,46,360.5c0,299.2-1.9,306.8-47.9,352.9c-46,46-51.8,47.9-354.8,47.9S8047.4-2950.1,8001.4-2996.1z M8432.9-3350.9v-76.7h-76.7h-76.7v76.7v76.7h76.7h76.7V-3350.9z"
         id="path42"
         style="fill:#cccccc;fill-opacity:1" /></g></g></svg>