<?xml version="1.0" encoding="UTF-8" standalone="no"?>
<!-- Generator: Adobe Illustrator 21.1.0, SVG Export Plug-In . SVG Version: 6.00 Build 0)  -->

<svg
   xmlns:dc="http://purl.org/dc/elements/1.1/"
   xmlns:cc="http://creativecommons.org/ns#"
   xmlns:rdf="http://www.w3.org/1999/02/22-rdf-syntax-ns#"
   xmlns:svg="http://www.w3.org/2000/svg"
   xmlns="http://www.w3.org/2000/svg"
   xmlns:sodipodi="http://sodipodi.sourceforge.net/DTD/sodipodi-0.dtd"
   xmlns:inkscape="http://www.inkscape.org/namespaces/inkscape"
   version="1.1"
   id="Layer_1"
   x="0px"
   y="0px"
   viewBox="0 0 50 50"
   style="enable-background:new 0 0 50 50;"
   xml:space="preserve"
   width="50px"
   height="50px"
   inkscape:version="0.91 r13725"
   sodipodi:docname="settings.svg"><metadata
     id="metadata11"><rdf:RDF><cc:Work
         rdf:about=""><dc:format>image/svg+xml</dc:format><dc:type
           rdf:resource="http://purl.org/dc/dcmitype/StillImage" /></cc:Work></rdf:RDF></metadata><defs
     id="defs9" /><sodipodi:namedview
     pagecolor="#ffffff"
     bordercolor="#666666"
     borderopacity="1"
     objecttolerance="10"
     gridtolerance="10"
     guidetolerance="10"
     inkscape:pageopacity="0"
     inkscape:pageshadow="2"
     inkscape:window-width="1920"
     inkscape:window-height="1142"
     id="namedview7"
     showgrid="false"
     inkscape:zoom="4.72"
     inkscape:cx="25.423729"
     inkscape:cy="25"
     inkscape:window-x="0"
     inkscape:window-y="0"
     inkscape:window-maximized="1"
     inkscape:current-layer="Layer_1" /><path
     style="fill:none;stroke:#cccccc;stroke-width:2;stroke-linecap:round;stroke-linejoin:round;stroke-miterlimit:10;fill-opacity:1;stroke-opacity:1"
     d="  M46.999,27.708v-5.5l-6.546-1.07c-0.388-1.55-0.996-3.007-1.798-4.342l3.815-5.437L38.58,7.472l-5.368,3.859  c-1.338-0.81-2.805-1.428-4.366-1.817L27.706,3h-5.5l-1.06,6.492c-1.562,0.383-3.037,0.993-4.379,1.799l-5.352-3.824l-3.889,3.887  l3.765,5.384c-0.814,1.347-1.433,2.82-1.826,4.392l-6.464,1.076v5.5l6.457,1.145c0.39,1.568,1.009,3.041,1.826,4.391l-3.816,5.337  l3.887,3.891l5.391-3.776c1.346,0.808,2.817,1.423,4.379,1.808L22.206,47h5.5l1.156-6.513c1.554-0.394,3.022-1.013,4.355-1.824  l5.428,3.809l3.888-3.891l-3.875-5.38c0.802-1.335,1.411-2.794,1.795-4.344L46.999,27.708z"
     id="path3" /><circle
     style="fill:none;stroke:#cccccc;stroke-width:2;stroke-linecap:round;stroke-linejoin:round;stroke-miterlimit:10;stroke-opacity:1"
     cx="25"
     cy="25"
     r="7"
     id="circle5" /></svg>